<svg width="165" height="120" viewBox="0 0 165 120" fill="none" xmlns="http://www.w3.org/2000/svg">
<path id="Vector 68" d="M68.2255 50.9041L68.7131 50.2731L68.2255 50.9041ZM22.9013 90.6085L22.1308 90.8141L22.1308 90.8141L22.9013 90.6085ZM161.128 119.098L164.04 110.362L155.019 112.208L161.128 119.098ZM0.314039 0.91791C1.72759 11.0145 5.08288 18.0569 9.77325 23.2238C14.4544 28.3806 20.4099 31.6069 26.9114 34.1671C30.1621 35.4472 33.5636 36.566 37.0196 37.674C40.4826 38.7842 43.9967 39.8824 47.5071 41.1292C54.5232 43.6213 61.4643 46.6874 67.7379 51.5352L68.7131 50.2731C62.2474 45.2768 55.1265 42.143 48.0409 39.6263C44.5005 38.3688 40.9539 37.2604 37.5065 36.1552C34.0523 35.0478 30.694 33.9425 27.4958 32.6831C21.0995 30.1643 15.4006 27.05 10.9542 22.1518C6.51688 17.2637 3.27119 10.5368 1.89356 0.696777L0.314039 0.91791ZM67.7379 51.5352C71.2294 54.2332 73.176 57.0979 73.9757 59.9835C74.7753 62.8686 74.4524 65.8609 73.2506 68.8581C70.8328 74.8879 64.8976 80.8246 57.8074 85.5473C50.7311 90.2609 42.6329 93.6793 36.0371 94.7527C32.7338 95.2903 29.88 95.2276 27.7365 94.5089C25.6324 93.8034 24.2253 92.4774 23.6718 90.403L22.1308 90.8141C22.8437 93.4859 24.7017 95.1735 27.2295 96.0211C29.7178 96.8554 32.8628 96.8852 36.2933 96.3269C43.165 95.2086 51.4746 91.682 58.6916 86.8747C65.8949 82.0766 72.1387 75.9166 74.731 69.4517C76.0343 66.2014 76.4243 62.8467 75.5127 59.5575C74.6012 56.2688 72.4125 53.1319 68.7131 50.2731L67.7379 51.5352ZM23.6718 90.403C22.4373 85.7761 23.3012 81.8535 25.7611 78.5736C28.2466 75.2596 32.407 72.5447 37.8517 70.4962C48.7394 66.3998 64.4735 65.077 81.1157 66.7045C97.7464 68.3308 115.193 72.8947 129.493 80.4904C143.8 88.09 154.866 98.6727 158.926 112.298L160.454 111.843C156.227 97.6544 144.755 86.7915 130.241 79.0818C115.719 71.3681 98.0613 66.759 81.2709 65.1171C64.4921 63.4763 48.4889 64.79 37.2901 69.0034C31.6916 71.1097 27.2216 73.968 24.4852 77.6166C21.7233 81.2993 20.774 85.7286 22.1308 90.8141L23.6718 90.403Z" fill="#0C88CD"/>
</svg>
