<svg width="100" height="57" viewBox="0 0 100 57" fill="none" xmlns="http://www.w3.org/2000/svg">
<path id="Vector 70" d="M53.5847 28.4056L52.825 27.1122L53.5847 28.4056ZM62.8864 54.9033L62.7052 56.3923L62.7053 56.3923L62.8864 54.9033ZM99.2114 0.0668414L81.8985 0.580719L91 15.3172L99.2114 0.0668414ZM0.749242 53.6104C17.4212 56.4318 27.7491 52.2871 35.5345 46.3759C39.3691 43.4645 42.5731 40.1336 45.5427 37.1511C48.5519 34.1289 51.299 31.4878 54.3444 29.699L52.825 27.1122C49.4006 29.1237 46.4022 32.036 43.4168 35.0343C40.3918 38.0724 37.3521 41.2292 33.7204 43.9866C26.5732 49.4131 17.0784 53.3311 1.24981 50.6525L0.749242 53.6104ZM54.3444 29.699C55.9574 28.7515 57.2918 28.4943 58.3846 28.6166C59.4765 28.7388 60.4945 29.2585 61.4426 30.1653C63.391 32.029 64.8627 35.3654 65.6544 39.1579C66.4398 42.92 66.4967 46.8487 65.8588 49.6949C65.5376 51.1279 65.0701 52.1515 64.5538 52.7579C64.0883 53.3047 63.6267 53.4823 63.0676 53.4142L62.7053 56.3923C64.4188 56.6008 65.8276 55.8895 66.8381 54.7027C67.7978 53.5754 68.412 52.0206 68.7862 50.351C69.5391 46.9917 69.4414 42.618 68.5911 38.5448C67.7471 34.502 66.1018 30.4704 63.5162 27.9973C62.1973 26.7359 60.594 25.8451 58.7183 25.6352C56.8435 25.4254 54.8641 25.9145 52.825 27.1122L54.3444 29.699ZM63.0676 53.4142C61.4258 53.2145 60.5412 52.6552 60.0551 52.0093C59.552 51.341 59.2788 50.3195 59.3996 48.8156C59.6456 45.753 61.4654 41.4551 64.4379 36.5444C70.3347 26.8024 80.2634 15.454 88.6968 8.30405L86.7568 6.01577C78.0964 13.3582 67.9491 24.9501 61.8714 34.9909C58.8566 39.9717 56.7144 44.7759 56.4092 48.5754C56.2544 50.5026 56.5583 52.3521 57.6581 53.8134C58.775 55.2973 60.5191 56.1263 62.7052 56.3923L63.0676 53.4142Z" fill="#0C88CD"/>
</svg>
