<svg width="20" height="20" viewBox="0 0 20 20" fill="none" xmlns="http://www.w3.org/2000/svg">
<path d="M10 17.5002H15C16.3808 17.5002 17.5 16.381 17.5 15.0002V8.88937C17.5 8.11771 17.1442 7.38938 16.535 6.91604L11.535 3.02687C10.6325 2.32438 9.36833 2.32438 8.465 3.02687L3.465 6.91604C2.85583 7.38938 2.5 8.11771 2.5 8.88937V10.0002" stroke="#E12727" stroke-linecap="round" stroke-linejoin="round"/>
<path d="M2.68749 17.1257C2.79083 17.1257 2.87499 17.2107 2.87499 17.3132C2.87416 17.4165 2.78999 17.5007 2.68749 17.5007C2.58416 17.5007 2.49999 17.4165 2.50083 17.3132C2.49999 17.2098 2.58333 17.1257 2.68749 17.1257" stroke="#E12727" stroke-linecap="round" stroke-linejoin="round"/>
<path d="M2.5 15C3.96333 15.0325 4.9675 16.0367 5 17.5" stroke="#E12727" stroke-linecap="round" stroke-linejoin="round"/>
<path d="M7.5 17.5C7.4925 16.8675 7.38583 16.275 7.19417 15.7325C6.70417 14.345 5.655 13.2958 4.26667 12.805C3.725 12.6142 3.1325 12.5075 2.5 12.5" stroke="#E12727" stroke-linecap="round" stroke-linejoin="round"/>
</svg>
